<svg xmlns="http://www.w3.org/2000/svg" viewBox="0 0 1200 630" width="1200" height="630">
  <defs>
    <radialGradient id="g1" cx="18%" cy="18%" r="65%">
      <stop offset="0" stop-color="#1fd1a5" stop-opacity="0.55"/>
      <stop offset="0.45" stop-color="#123b4a" stop-opacity="0.35"/>
      <stop offset="1" stop-color="#071018" stop-opacity="1"/>
    </radialGradient>
    <linearGradient id="g2" x1="0" x2="1" y1="0" y2="1">
      <stop offset="0" stop-color="#0b1620"/>
      <stop offset="0.55" stop-color="#111827"/>
      <stop offset="1" stop-color="#201326"/>
    </linearGradient>
    <linearGradient id="line" x1="0" x2="1">
      <stop offset="0" stop-color="#20e3b2"/>
      <stop offset="0.55" stop-color="#f7c948"/>
      <stop offset="1" stop-color="#ff6b6b"/>
    </linearGradient>
    <filter id="glow" x="-40%" y="-40%" width="180%" height="180%">
      <feGaussianBlur stdDeviation="8" result="blur"/>
      <feMerge><feMergeNode in="blur"/><feMergeNode in="SourceGraphic"/></feMerge>
    </filter>
  </defs>
  <rect width="1200" height="630" fill="url(#g2)"/>
  <rect width="1200" height="630" fill="url(#g1)" opacity="0.9"/>
  <g opacity="0.12" stroke="#d9f8ff" stroke-width="1">
    <path d="M0 92H1200M0 164H1200M0 236H1200M0 308H1200M0 380H1200M0 452H1200M0 524H1200"/>
    <path d="M92 0V630M184 0V630M276 0V630M368 0V630M460 0V630M552 0V630M644 0V630M736 0V630M828 0V630M920 0V630M1012 0V630M1104 0V630"/>
  </g>
  <g transform="translate(710 94)">
    <rect x="0" y="0" width="360" height="360" rx="22" fill="#08111a" opacity="0.72" stroke="#2dd4bf" stroke-opacity="0.35"/>
    <path d="M42 270 C95 250, 116 215, 168 206 S238 154, 308 92" fill="none" stroke="url(#line)" stroke-width="10" stroke-linecap="round" filter="url(#glow)"/>
    <path d="M54 310H318" stroke="#94a3b8" stroke-width="3" opacity="0.5"/>
    <path d="M54 52V310" stroke="#94a3b8" stroke-width="3" opacity="0.5"/>
    <g fill="#20e3b2" opacity="0.9">
      <circle cx="42" cy="270" r="7"/><circle cx="168" cy="206" r="7"/><circle cx="308" cy="92" r="7"/>
    </g>
    <g font-family="DejaVu Sans, Arial, sans-serif" fill="#e5e7eb" font-size="28" font-weight="700">
      <text x="54" y="84">PPI</text>
      <text x="230" y="304">CPI</text>
    </g>
    <g font-family="DejaVu Sans, Arial, sans-serif" font-size="18" fill="#facc15">
      <text x="54" y="342">macro up, wallet waits</text>
    </g>
  </g>
  <g transform="translate(90 92)">
    <text x="0" y="0" font-family="Noto Sans CJK SC, Noto Sans CJK, WenQuanYi Micro Hei, sans-serif" fill="#f8fafc" font-size="64" font-weight="800">PPI转正了，</text>
    <text x="0" y="82" font-family="Noto Sans CJK SC, Noto Sans CJK, WenQuanYi Micro Hei, sans-serif" fill="#f8fafc" font-size="64" font-weight="800">你的钱包感觉到了吗？</text>
    <rect x="0" y="130" width="116" height="6" rx="3" fill="#20e3b2"/>
    <text x="0" y="184" font-family="Noto Sans CJK SC, Noto Sans CJK, WenQuanYi Micro Hei, sans-serif" fill="#cbd5e1" font-size="26">转载自知乎 · 几回醉</text>
    <text x="0" y="236" font-family="Noto Sans CJK SC, Noto Sans CJK, WenQuanYi Micro Hei, sans-serif" fill="#dbeafe" font-size="24">宏观数据回暖与微观体感之间的温差</text>
    <g transform="translate(0 308)" font-family="Noto Sans CJK SC, Noto Sans CJK, WenQuanYi Micro Hei, sans-serif" font-size="20" fill="#e2e8f0">
      <rect x="0" y="-28" width="160" height="44" rx="8" fill="#0f766e" opacity="0.65"/><text x="18" y="0">PPI 转正</text>
      <rect x="184" y="-28" width="170" height="44" rx="8" fill="#92400e" opacity="0.65"/><text x="202" y="0">价格传导</text>
      <rect x="378" y="-28" width="190" height="44" rx="8" fill="#7f1d1d" opacity="0.65"/><text x="396" y="0">钱包体感</text>
    </g>
  </g>
  <circle cx="1060" cy="90" r="92" fill="#f59e0b" opacity="0.12"/>
  <circle cx="112" cy="560" r="130" fill="#14b8a6" opacity="0.10"/>
</svg>
