<?xml version="1.0" encoding="UTF-8"?>
<svg xmlns="http://www.w3.org/2000/svg" width="1400" height="760" viewBox="0 0 1400 760" role="img" aria-labelledby="title desc">
  <title id="title">Quant investing system hero</title>
  <desc id="desc">Decorative system diagram for the article hero.</desc>
  <defs>
    <marker id="arrow" viewBox="0 0 10 10" refX="8.5" refY="5" markerWidth="8" markerHeight="8" orient="auto-start-reverse">
      <path d="M 0 0 L 10 5 L 0 10 z" fill="#334155"/>
    </marker>
    <linearGradient id="coverGradient" x1="0%" y1="0%" x2="100%" y2="100%">
      <stop offset="0%" stop-color="#ecfeff"/>
      <stop offset="46%" stop-color="#f8fafc"/>
      <stop offset="100%" stop-color="#fff7ed"/>
    </linearGradient>
    <filter id="softShadow" x="-10%" y="-10%" width="120%" height="130%">
      <feDropShadow dx="0" dy="12" stdDeviation="12" flood-color="#0f172a" flood-opacity="0.10"/>
    </filter>
  </defs>
  <style>
    text { font-family: -apple-system, BlinkMacSystemFont, "Segoe UI", "PingFang SC", "Microsoft YaHei", sans-serif; }
    .mono { font-family: "SFMono-Regular", "Menlo", "Consolas", monospace; }
  </style>
  <rect width="100%" height="100%" fill="#f8fafc"/>

  <defs>
    <linearGradient id="heroGradient" x1="0%" y1="0%" x2="100%" y2="100%">
      <stop offset="0%" stop-color="#020617"/>
      <stop offset="52%" stop-color="#0f172a"/>
      <stop offset="100%" stop-color="#164e63"/>
    </linearGradient>
    <radialGradient id="heroGlow" cx="32%" cy="26%" r="70%">
      <stop offset="0%" stop-color="#38bdf8" stop-opacity="0.38"/>
      <stop offset="46%" stop-color="#2563eb" stop-opacity="0.12"/>
      <stop offset="100%" stop-color="#020617" stop-opacity="0"/>
    </radialGradient>
    <filter id="heroShadow" x="-15%" y="-15%" width="130%" height="130%">
      <feDropShadow dx="0" dy="18" stdDeviation="20" flood-color="#000000" flood-opacity="0.32"/>
    </filter>
  </defs>
  <rect width="1400" height="760" fill="url(#heroGradient)"/>
  <rect width="1400" height="760" fill="url(#heroGlow)"/>
  <g opacity="0.24">
    <path d="M 110 180 C 320 95, 455 238, 675 165 S 1010 72, 1295 210" fill="none" stroke="#67e8f9" stroke-width="4"/>
    <path d="M 90 595 C 265 470, 458 665, 662 534 S 1018 430, 1316 570" fill="none" stroke="#fed7aa" stroke-width="5"/>
    <path d="M 180 378 L 1220 378" stroke="#e2e8f0" stroke-width="2" stroke-dasharray="10 16"/>
  </g>
  <g transform="translate(690 122)" filter="url(#heroShadow)">
    <rect x="0" y="0" width="444" height="360" rx="18" fill="#0b1220" stroke="#334155" stroke-width="2" opacity="1" />
    <circle cx="62" cy="58" r="15" fill="#38bdf8" opacity="0.9"/>
    <circle cx="112" cy="58" r="15" fill="#2dd4bf" opacity="0.9"/>
    <circle cx="162" cy="58" r="15" fill="#f59e0b" opacity="0.9"/>
    <rect x="54" y="122" width="336" height="52" rx="10" fill="#111827" stroke="#334155" stroke-width="2" opacity="1" />
    <rect x="54" y="206" width="336" height="52" rx="10" fill="#111827" stroke="#334155" stroke-width="2" opacity="1" />
    <rect x="54" y="290" width="336" height="52" rx="10" fill="#111827" stroke="#334155" stroke-width="2" opacity="1" />
    <line x1="92" y1="148" x2="282" y2="148" stroke="#bfdbfe" stroke-width="8" stroke-linecap="round" opacity="0.72"/>
    <line x1="92" y1="232" x2="338" y2="232" stroke="#ccfbf1" stroke-width="8" stroke-linecap="round" opacity="0.72"/>
    <line x1="92" y1="316" x2="246" y2="316" stroke="#fed7aa" stroke-width="8" stroke-linecap="round" opacity="0.72"/>
    <circle cx="340" cy="148" r="8" fill="#bfdbfe" opacity="0.86"/>
    <circle cx="284" cy="316" r="8" fill="#fed7aa" opacity="0.86"/>
  </g>
  <g>
    <rect x="180" y="286" width="170" height="58" rx="29" fill="#dbeafe" stroke="none" stroke-width="0" opacity="0.92" />
    <rect x="430" y="286" width="170" height="58" rx="29" fill="#ccfbf1" stroke="none" stroke-width="0" opacity="0.92" />
    <rect x="1178" y="286" width="170" height="58" rx="29" fill="#fef3c7" stroke="none" stroke-width="0" opacity="0.92" />
    <circle cx="230" cy="315" r="11" fill="#1d4ed8" opacity="0.9"/>
    <circle cx="280" cy="315" r="11" fill="#38bdf8" opacity="0.9"/>
    <circle cx="480" cy="315" r="11" fill="#0f766e" opacity="0.9"/>
    <circle cx="530" cy="315" r="11" fill="#2dd4bf" opacity="0.9"/>
    <circle cx="1232" cy="315" r="11" fill="#b7791f" opacity="0.9"/>
    <circle cx="1282" cy="315" r="11" fill="#f59e0b" opacity="0.9"/>
    <line x1="350" y1="315" x2="430" y2="315" stroke="#94a3b8" stroke-width="4" stroke-linecap="round" marker-end="url(#arrow)"/>
    <line x1="600" y1="315" x2="690" y2="315" stroke="#94a3b8" stroke-width="4" stroke-linecap="round" marker-end="url(#arrow)"/>
    <line x1="1134" y1="315" x2="1178" y2="315" stroke="#94a3b8" stroke-width="4" stroke-linecap="round" marker-end="url(#arrow)"/>
  </g>
  <g opacity="0.42">
    <circle cx="186" cy="152" r="4" fill="#e0f2fe"/>
    <circle cx="248" cy="214" r="4" fill="#e0f2fe"/>
    <circle cx="360" cy="152" r="4" fill="#e0f2fe"/>
    <circle cx="468" cy="220" r="4" fill="#e0f2fe"/>
    <line x1="186" y1="152" x2="248" y2="214" stroke="#bae6fd" stroke-width="2"/>
    <line x1="248" y1="214" x2="360" y2="152" stroke="#bae6fd" stroke-width="2"/>
    <line x1="360" y1="152" x2="468" y2="220" stroke="#bae6fd" stroke-width="2"/>
  </g>

</svg>
