<svg xmlns="http://www.w3.org/2000/svg" viewBox="0 0 1200 630" width="1200" height="630">
  <defs><linearGradient id="bg2" x1="0%" y1="0%" x2="100%" y2="100%"><stop offset="0%" style="stop-color:#0d1b2a"/><stop offset="100%" style="stop-color:#1b2838"/></linearGradient></defs>
  <rect width="1200" height="630" fill="url(#bg2)"/>
  <rect x="150" y="300" width="12" height="80" rx="2" fill="#e94560"/><line x1="156" y1="280" x2="156" y2="420" stroke="#e94560" stroke-width="2"/>
  <rect x="200" y="260" width="12" height="40" rx="2" fill="#e94560"/><line x1="206" y1="240" x2="206" y2="340" stroke="#e94560" stroke-width="2"/>
  <rect x="250" y="220" width="12" height="70" rx="2" fill="#00c853"/><line x1="256" y1="200" x2="256" y2="340" stroke="#00c853" stroke-width="2"/>
  <rect x="300" y="180" width="12" height="50" rx="2" fill="#00c853"/><line x1="306" y1="160" x2="306" y2="280" stroke="#00c853" stroke-width="2"/>
  <rect x="350" y="150" width="12" height="30" rx="2" fill="#e94560"/><line x1="356" y1="140" x2="356" y2="220" stroke="#e94560" stroke-width="2"/>
  <rect x="400" y="120" width="12" height="60" rx="2" fill="#00c853"/><line x1="406" y1="110" x2="406" y2="230" stroke="#00c853" stroke-width="2"/>
  <rect x="450" y="100" width="12" height="40" rx="2" fill="#00c853"/><line x1="456" y1="90" x2="456" y2="190" stroke="#00c853" stroke-width="2"/>
  <polyline points="140,340 190,280 240,260 290,200 340,178 390,150 440,120" fill="none" stroke="#00c853" stroke-width="2" stroke-dasharray="8,4" opacity="0.6"/>
  <line x1="80" y1="440" x2="1120" y2="440" stroke="#fff" stroke-width="0.5" opacity="0.08"/>
  <line x1="80" y1="340" x2="1120" y2="340" stroke="#fff" stroke-width="0.5" opacity="0.08"/>
  <line x1="80" y1="240" x2="1120" y2="240" stroke="#fff" stroke-width="0.5" opacity="0.08"/>
  <line x1="80" y1="140" x2="1120" y2="140" stroke="#fff" stroke-width="0.5" opacity="0.08"/>
  <text x="80" y="100" font-family="sans-serif" font-size="44" font-weight="bold" fill="#ffffff">量化交易从入门到精通</text>
  <text x="80" y="155" font-family="sans-serif" font-size="28" fill="#e94560" opacity="0.9">概述：投资市场是否有交易圣杯？</text>
  <text x="80" y="500" font-family="monospace" font-size="18" fill="#c0c0c0" opacity="0.5">能量守恒理论 · 海龟实验 · Aberration · 一目均衡表 · Dual Thrust · 机械交易系统</text>
  <rect x="80" y="530" width="200" height="45" rx="22" fill="#e94560" opacity="0.12"/><text x="180" y="558" font-family="sans-serif" font-size="16" fill="#e94560" text-anchor="middle">45页原文精读</text>
  <rect x="300" y="530" width="200" height="45" rx="22" fill="#e94560" opacity="0.12"/><text x="400" y="558" font-family="sans-serif" font-size="16" fill="#e94560" text-anchor="middle">42张原图保留</text>
  <rect x="520" y="530" width="220" height="45" rx="22" fill="#e94560" opacity="0.12"/><text x="630" y="558" font-family="sans-serif" font-size="16" fill="#e94560" text-anchor="middle">10个核心章节</text>
</svg>
