<svg xmlns="http://www.w3.org/2000/svg" width="1600" height="900" viewBox="0 0 1600 900" role="img" aria-labelledby="title desc">
  <title id="title">RoboSense investment analysis cover</title>
  <desc id="desc">Abstract lidar point cloud, automotive sensing, robotics sensing, and financial analysis dashboard.</desc>
  <defs>
    <linearGradient id="bg" x1="0" y1="0" x2="1" y2="1">
      <stop offset="0" stop-color="#101820"/>
      <stop offset="0.52" stop-color="#172b33"/>
      <stop offset="1" stop-color="#27351f"/>
    </linearGradient>
    <linearGradient id="beam" x1="0" y1="0" x2="1" y2="0">
      <stop offset="0" stop-color="#5dd6c8" stop-opacity="0"/>
      <stop offset="0.55" stop-color="#5dd6c8" stop-opacity="0.72"/>
      <stop offset="1" stop-color="#d8e86b" stop-opacity="0.95"/>
    </linearGradient>
    <filter id="soft">
      <feGaussianBlur stdDeviation="3"/>
    </filter>
  </defs>
  <rect width="1600" height="900" fill="url(#bg)"/>
  <g opacity="0.24" stroke="#8fb0b5" stroke-width="1">
    <path d="M0 710 C260 640 398 730 624 670 C880 602 1040 532 1600 588" fill="none"/>
    <path d="M0 760 C266 692 416 786 658 720 C916 650 1110 590 1600 636" fill="none"/>
    <path d="M0 812 C278 740 455 840 705 770 C996 690 1180 648 1600 690" fill="none"/>
  </g>
  <g transform="translate(320 532)">
    <path d="M-60 48 C-4 4 170 -8 247 40 L322 88 C344 102 337 132 310 132 L-4 132 C-45 132 -82 112 -95 78 C-101 64 -91 56 -60 48Z" fill="#26343a" stroke="#77f1db" stroke-width="4"/>
    <circle cx="18" cy="132" r="38" fill="#0f171b" stroke="#d8e86b" stroke-width="8"/>
    <circle cx="255" cy="132" r="38" fill="#0f171b" stroke="#d8e86b" stroke-width="8"/>
    <rect x="94" y="28" width="70" height="42" rx="8" fill="#5dd6c8" opacity="0.86"/>
    <path d="M94 70 L164 70" stroke="#101820" stroke-width="6"/>
  </g>
  <g transform="translate(1040 470)">
    <rect x="-58" y="-108" width="116" height="216" rx="58" fill="#27343a" stroke="#9fe9d2" stroke-width="4"/>
    <circle cx="0" cy="-42" r="26" fill="#d8e86b"/>
    <rect x="-26" y="6" width="52" height="70" rx="18" fill="#5dd6c8"/>
    <path d="M-58 -4 L-128 54 M58 -4 L128 54 M-28 76 L-62 152 M28 76 L62 152" stroke="#9fe9d2" stroke-width="10" stroke-linecap="round"/>
  </g>
  <g transform="translate(760 520)" stroke="url(#beam)" stroke-width="3" stroke-linecap="round">
    <path d="M0 0 L-412 -176"/>
    <path d="M0 0 L-360 -92"/>
    <path d="M0 0 L-268 8"/>
    <path d="M0 0 L-134 92"/>
    <path d="M0 0 L170 -106"/>
    <path d="M0 0 L308 -42"/>
    <path d="M0 0 L424 82"/>
  </g>
  <g opacity="0.95">
    <circle cx="348" cy="344" r="5" fill="#d8e86b"/>
    <circle cx="400" cy="428" r="4" fill="#5dd6c8"/>
    <circle cx="492" cy="532" r="5" fill="#d8e86b"/>
    <circle cx="626" cy="612" r="4" fill="#5dd6c8"/>
    <circle cx="930" cy="414" r="5" fill="#d8e86b"/>
    <circle cx="1068" cy="478" r="4" fill="#5dd6c8"/>
    <circle cx="1184" cy="602" r="5" fill="#d8e86b"/>
  </g>
  <g transform="translate(108 120)">
    <rect x="0" y="0" width="438" height="230" rx="18" fill="#edf2e8" opacity="0.96"/>
    <text x="34" y="60" fill="#111820" font-family="Arial, Helvetica, sans-serif" font-size="28" font-weight="700">速腾聚创投资分析</text>
    <text x="34" y="108" fill="#314047" font-family="Arial, Helvetica, sans-serif" font-size="20">ADAS + Robotics + LiDAR</text>
    <path d="M36 168 L112 128 L188 146 L264 92 L340 118 L400 76" fill="none" stroke="#1c7c74" stroke-width="7" stroke-linecap="round" stroke-linejoin="round"/>
    <circle cx="112" cy="128" r="7" fill="#b2c83f"/>
    <circle cx="264" cy="92" r="7" fill="#b2c83f"/>
    <circle cx="400" cy="76" r="7" fill="#b2c83f"/>
  </g>
  <text x="108" y="805" fill="#edf2e8" font-family="Arial, Helvetica, sans-serif" font-size="34" font-weight="700">从销量高增到盈利验证</text>
  <text x="108" y="852" fill="#b9c8c1" font-family="Arial, Helvetica, sans-serif" font-size="22">数据截至 2026-06-08 · 不构成投资建议</text>
</svg>
