<svg xmlns="http://www.w3.org/2000/svg" width="1200" height="930" viewBox="0 0 1200 930">
<style>
text{font-family:-apple-system,BlinkMacSystemFont,'Noto Sans SC','Microsoft YaHei',Arial,sans-serif}
.title{font-size:38px;font-weight:800;fill:#0f172a}.sub{font-size:18px;fill:#475569}.h{font-size:15px;font-weight:800;fill:#64748b}.label{font-size:16px;font-weight:800;fill:#0f172a}.small{font-size:13px;fill:#475569}.tiny{font-size:12px;fill:#64748b}.card{fill:#fff;stroke:#dbe3ef;stroke-width:1.2}.grid{stroke:#e2e8f0;stroke-width:1}.axis{stroke:#cbd5e1;stroke-width:1.2}.blue{fill:#2563eb}.green{fill:#0f766e}.orange{fill:#ea580c}.red{fill:#dc2626}.slate{fill:#334155}.softblue{fill:#eff6ff}.softgreen{fill:#ecfdf5}.softorange{fill:#fff7ed}
</style>
<rect width="1200" height="930" fill="#f8fafc"/>
<rect x="34" y="28" width="1132" height="874" rx="24" class="card"/>
<text x="68" y="76" class="title">近期券商目标价与评级</text>
<text x="68" y="108" class="sub">单位：港元；发布日期与模型口径不同，不能机械排序</text>
<text x="72" y="148" class="h">机构</text><text x="184" y="148" class="h">评级</text><text x="420" y="148" class="h">目标价分布（34-49.8）</text><text x="850" y="148" class="h">主要口径</text>
<line x1="68" y1="158" x2="1128" y2="158" class="axis"/>
<line x1="422" y1="168" x2="422" y2="868" class="grid"/><line x1="520" y1="168" x2="520" y2="868" class="grid"/><line x1="618" y1="168" x2="618" y2="868" class="grid"/><line x1="732" y1="168" x2="732" y2="868" class="grid"/>
<g transform="translate(72,176)">
  <text x="0" y="18" class="label">大摩</text>
  <text x="112" y="18" class="small">增持</text>
  <rect x="350" y="4" width="310.0" height="18" rx="9" class="blue"/>
  <text x="672.0" y="18" class="small">49.80 港元</text>
  <text x="780" y="18" class="tiny">绩后大行表最高目标价</text>
</g>
<g transform="translate(72,219)">
  <text x="0" y="18" class="label">花旗</text>
  <text x="112" y="18" class="small">买入</text>
  <rect x="350" y="4" width="274.7" height="18" rx="9" class="blue"/>
  <text x="636.7" y="18" class="small">48 港元</text>
  <text x="780" y="18" class="tiny">6月维持48港元</text>
</g>
<g transform="translate(72,262)">
  <text x="0" y="18" class="label">美银</text>
  <text x="112" y="18" class="small">买入</text>
  <rect x="350" y="4" width="274.7" height="18" rx="9" class="blue"/>
  <text x="636.7" y="18" class="small">48 港元</text>
  <text x="780" y="18" class="tiny">供应趋紧与铝价弹性</text>
</g>
<g transform="translate(72,305)">
  <text x="0" y="18" class="label">中金</text>
  <text x="112" y="18" class="small">跑赢行业</text>
  <rect x="350" y="4" width="265.7" height="18" rx="9" class="blue"/>
  <text x="627.7" y="18" class="small">47.54 港元</text>
  <text x="780" y="18" class="tiny">上调目标价</text>
</g>
<g transform="translate(72,348)">
  <text x="0" y="18" class="label">第一上海</text>
  <text x="112" y="18" class="small">买入</text>
  <rect x="350" y="4" width="249.2" height="18" rx="9" class="blue"/>
  <text x="611.2" y="18" class="small">46.70 港元</text>
  <text x="780" y="18" class="tiny">按2026年13倍PE</text>
</g>
<g transform="translate(72,391)">
  <text x="0" y="18" class="label">瑞银</text>
  <text x="112" y="18" class="small">买入</text>
  <rect x="350" y="4" width="237.4" height="18" rx="9" class="blue"/>
  <text x="599.4" y="18" class="small">46.10 港元</text>
  <text x="780" y="18" class="tiny">绩后仍买入</text>
</g>
<g transform="translate(72,434)">
  <text x="0" y="18" class="label">广发</text>
  <text x="112" y="18" class="small">买入</text>
  <rect x="350" y="4" width="218.8" height="18" rx="9" class="green"/>
  <text x="580.8" y="18" class="small">45.15 港元</text>
  <text x="780" y="18" class="tiny">合理价值45.15</text>
</g>
<g transform="translate(72,477)">
  <text x="0" y="18" class="label">招银国际</text>
  <text x="112" y="18" class="small">买入</text>
  <rect x="350" y="4" width="215.8" height="18" rx="9" class="green"/>
  <text x="577.8" y="18" class="small">45 港元</text>
  <text x="780" y="18" class="tiny">铝供应紧张受益</text>
</g>
<g transform="translate(72,520)">
  <text x="0" y="18" class="label">华创</text>
  <text x="112" y="18" class="small">推荐</text>
  <rect x="350" y="4" width="196.2" height="18" rx="9" class="green"/>
  <text x="558.2" y="18" class="small">44 港元</text>
  <text x="780" y="18" class="tiny">一体化优势与回购</text>
</g>
<g transform="translate(72,563)">
  <text x="0" y="18" class="label">杰富瑞</text>
  <text x="112" y="18" class="small">买入</text>
  <rect x="350" y="4" width="192.3" height="18" rx="9" class="green"/>
  <text x="554.3" y="18" class="small">43.80 港元</text>
  <text x="780" y="18" class="tiny">铝价回升受益</text>
</g>
<g transform="translate(72,606)">
  <text x="0" y="18" class="label">国泰海通</text>
  <text x="112" y="18" class="small">买入</text>
  <rect x="350" y="4" width="180.5" height="18" rx="9" class="green"/>
  <text x="542.5" y="18" class="small">43.20 港元</text>
  <text x="780" y="18" class="tiny">铝市场趋紧</text>
</g>
<g transform="translate(72,649)">
  <text x="0" y="18" class="label">东北</text>
  <text x="112" y="18" class="small">买入</text>
  <rect x="350" y="4" width="157.0" height="18" rx="9" class="green"/>
  <text x="519.0" y="18" class="small">42 港元</text>
  <text x="780" y="18" class="tiny">首次覆盖</text>
</g>
<g transform="translate(72,692)">
  <text x="0" y="18" class="label">汇丰</text>
  <text x="112" y="18" class="small">买入</text>
  <rect x="350" y="4" width="137.3" height="18" rx="9" class="orange"/>
  <text x="499.3" y="18" class="small">41 港元</text>
  <text x="780" y="18" class="tiny">估值和股息率吸引</text>
</g>
<g transform="translate(72,735)">
  <text x="0" y="18" class="label">小摩</text>
  <text x="112" y="18" class="small">增持</text>
  <rect x="350" y="4" width="117.7" height="18" rx="9" class="orange"/>
  <text x="479.7" y="18" class="small">40 港元</text>
  <text x="780" y="18" class="tiny">上调至40</text>
</g>
<g transform="translate(72,778)">
  <text x="0" y="18" class="label">华泰</text>
  <text x="112" y="18" class="small">买入</text>
  <rect x="350" y="4" width="23.9" height="18" rx="9" class="red"/>
  <text x="385.9" y="18" class="small">35.22 港元</text>
  <text x="780" y="18" class="tiny">高盈利高分红</text>
</g>
<g transform="translate(72,821)">
  <text x="0" y="18" class="label">高盛</text>
  <text x="112" y="18" class="small">中性</text>
  <rect x="350" y="4" width="8.0" height="18" rx="9" class="red"/>
  <text x="370.0" y="18" class="small">34 港元</text>
  <text x="780" y="18" class="tiny">担心价差正常化</text>
</g>
<text x="410" y="888" class="tiny">34</text><text x="508" y="888" class="tiny">39</text><text x="606" y="888" class="tiny">44</text><text x="720" y="888" class="tiny">49.8</text>
</svg>