<svg xmlns="http://www.w3.org/2000/svg" width="1200" height="760" viewBox="0 0 1200 760">
<style>
text{font-family:-apple-system,BlinkMacSystemFont,'Noto Sans SC','Microsoft YaHei',Arial,sans-serif}
.title{font-size:38px;font-weight:800;fill:#0f172a}.sub{font-size:18px;fill:#475569}.h{font-size:15px;font-weight:800;fill:#64748b}.label{font-size:16px;font-weight:800;fill:#0f172a}.small{font-size:13px;fill:#475569}.tiny{font-size:12px;fill:#64748b}.card{fill:#fff;stroke:#dbe3ef;stroke-width:1.2}.grid{stroke:#e2e8f0;stroke-width:1}.axis{stroke:#cbd5e1;stroke-width:1.2}.blue{fill:#2563eb}.green{fill:#0f766e}.orange{fill:#ea580c}.red{fill:#dc2626}.slate{fill:#334155}.softblue{fill:#eff6ff}.softgreen{fill:#ecfdf5}.softorange{fill:#fff7ed}
</style>
<rect width="1200" height="760" fill="#f8fafc"/><rect x="34" y="28" width="1132" height="704" rx="24" class="card"/>
<text x="68" y="76" class="title">盈利预测分歧</text><text x="68" y="108" class="sub">单位：亿元人民币；选取公开可见的2026-2028E归母净利润预测</text>
<line x1="150" y1="620" x2="1080" y2="620" class="axis"/><line x1="150" y1="180" x2="150" y2="620" class="axis"/>
<line x1="150" y1="543.6363636363636" x2="1080" y2="543.6363636363636" class="grid"/><text x="100" y="547.6363636363636" class="tiny">320</text>
<line x1="150" y1="467.27272727272725" x2="1080" y2="467.27272727272725" class="grid"/><text x="100" y="471.27272727272725" class="tiny">340</text>
<line x1="150" y1="390.90909090909093" x2="1080" y2="390.90909090909093" class="grid"/><text x="100" y="394.90909090909093" class="tiny">360</text>
<line x1="150" y1="314.54545454545456" x2="1080" y2="314.54545454545456" class="grid"/><text x="100" y="318.54545454545456" class="tiny">380</text>
<line x1="150" y1="238.1818181818182" x2="1080" y2="238.1818181818182" class="grid"/><text x="100" y="242.1818181818182" class="tiny">400</text>
<g><text x="232" y="655" class="label">国信</text><rect x="210" y="445.1" width="28" height="174.9" rx="6" class="blue"/><text x="203" y="437.1" class="tiny">345.8</text><rect x="248" y="408.5" width="28" height="211.5" rx="6" class="green"/><text x="241" y="400.5" class="tiny">355.4</text><rect x="286" y="369.9" width="28" height="250.1" rx="6" class="orange"/><text x="279" y="361.9" class="tiny">365.5</text></g>
<g><text x="402" y="655" class="label">华源</text><rect x="380" y="436.7" width="28" height="183.3" rx="6" class="blue"/><text x="373" y="428.7" class="tiny">348</text><rect x="418" y="352.7" width="28" height="267.3" rx="6" class="green"/><text x="411" y="344.7" class="tiny">370</text><rect x="456" y="264.9" width="28" height="355.1" rx="6" class="orange"/><text x="449" y="256.9" class="tiny">393</text></g>
<g><text x="572" y="655" class="label">华创</text><rect x="550" y="537.9" width="28" height="82.1" rx="6" class="blue"/><text x="543" y="529.9" class="tiny">321.5</text><rect x="588" y="430.2" width="28" height="189.8" rx="6" class="green"/><text x="581" y="422.2" class="tiny">349.7</text><rect x="626" y="303.5" width="28" height="316.5" rx="6" class="orange"/><text x="619" y="295.5" class="tiny">382.9</text></g>
<g><text x="742" y="655" class="label">第一上海</text><rect x="720" y="539.8" width="28" height="80.2" rx="6" class="blue"/><text x="713" y="531.8" class="tiny">321</text><rect x="758" y="455.8" width="28" height="164.2" rx="6" class="green"/><text x="751" y="447.8" class="tiny">343</text><rect x="796" y="379.5" width="28" height="240.5" rx="6" class="orange"/><text x="789" y="371.5" class="tiny">363</text></g>
<g><text x="912" y="655" class="label">东北</text><rect x="890" y="459.6" width="28" height="160.4" rx="6" class="blue"/><text x="883" y="451.6" class="tiny">342</text><rect x="928" y="329.8" width="28" height="290.2" rx="6" class="green"/><text x="921" y="321.8" class="tiny">376</text><rect x="966" y="291.6" width="28" height="328.4" rx="6" class="orange"/><text x="959" y="283.6" class="tiny">386</text></g>
<rect x="820" y="134" width="276" height="88" rx="14" fill="#ffffff" stroke="#dbe3ef"/><circle cx="846" cy="162" r="7" class="blue"/><text x="864" y="167" class="small">2026E</text><circle cx="936" cy="162" r="7" class="green"/><text x="954" y="167" class="small">2027E</text><circle cx="1026" cy="162" r="7" class="orange"/><text x="1044" y="167" class="small">2028E</text>
<text x="68" y="710" class="tiny">解读：分歧不在“是否盈利”，而在2027-2028年利润斜率能否延续。</text>
</svg>