<svg xmlns="http://www.w3.org/2000/svg" width="1200" height="760" viewBox="0 0 1200 760">
<style>
text{font-family:-apple-system,BlinkMacSystemFont,'Noto Sans SC','Microsoft YaHei',Arial,sans-serif}
.title{font-size:38px;font-weight:800;fill:#0f172a}.sub{font-size:18px;fill:#475569}.h{font-size:15px;font-weight:800;fill:#64748b}.label{font-size:16px;font-weight:800;fill:#0f172a}.small{font-size:13px;fill:#475569}.tiny{font-size:12px;fill:#64748b}.card{fill:#fff;stroke:#dbe3ef;stroke-width:1.2}.grid{stroke:#e2e8f0;stroke-width:1}.axis{stroke:#cbd5e1;stroke-width:1.2}.blue{fill:#2563eb}.green{fill:#0f766e}.orange{fill:#ea580c}.red{fill:#dc2626}.slate{fill:#334155}.softblue{fill:#eff6ff}.softgreen{fill:#ecfdf5}.softorange{fill:#fff7ed}
</style>
<rect width="1200" height="760" fill="#f8fafc"/><rect x="34" y="28" width="1132" height="704" rx="24" class="card"/>
<text x="68" y="76" class="title">近期公开研报矩阵</text><text x="68" y="108" class="sub">优先列示可追溯到PDF、研报平台或主流财经媒体的2026年线索</text>
<text x="72" y="152" class="h">日期</text><text x="190" y="152" class="h">机构</text><text x="330" y="152" class="h">评级/目标价</text><text x="520" y="152" class="h">核心判断</text>
<g transform="translate(60,180)"><rect x="0" y="0" width="1080" height="48" rx="12" fill="#ffffff" stroke="#e2e8f0"/>
  <text x="12" y="30" class="small">2026-06-09</text><text x="130" y="30" class="label">花旗</text><text x="270" y="30" class="small">买入/48</text><text x="460" y="30" class="small">控股股东增持、高股息预期</text></g>
<g transform="translate(60,238)"><rect x="0" y="0" width="1080" height="48" rx="12" fill="#f8fafc" stroke="#e2e8f0"/>
  <text x="12" y="30" class="small">2026-05-12</text><text x="130" y="30" class="label">东北</text><text x="270" y="30" class="small">买入/42</text><text x="460" y="30" class="small">一体化铝业龙头，红利吸引力突出</text></g>
<g transform="translate(60,296)"><rect x="0" y="0" width="1080" height="48" rx="12" fill="#ffffff" stroke="#e2e8f0"/>
  <text x="12" y="30" class="small">2026-04-29</text><text x="130" y="30" class="label">国信</text><text x="270" y="30" class="small">优于大市</text><text x="460" y="30" class="small">产业链配套齐全，受益铝价上涨</text></g>
<g transform="translate(60,354)"><rect x="0" y="0" width="1080" height="48" rx="12" fill="#f8fafc" stroke="#e2e8f0"/>
  <text x="12" y="30" class="small">2026-04-25</text><text x="130" y="30" class="label">华源</text><text x="270" y="30" class="small">首次买入</text><text x="460" y="30" class="small">全球电解铝龙头，高分红属性</text></g>
<g transform="translate(60,412)"><rect x="0" y="0" width="1080" height="48" rx="12" fill="#ffffff" stroke="#e2e8f0"/>
  <text x="12" y="30" class="small">2026-04-03</text><text x="130" y="30" class="label">华创</text><text x="270" y="30" class="small">推荐/44</text><text x="460" y="30" class="small">一体化优势显著，分红回购增强信心</text></g>
<g transform="translate(60,470)"><rect x="0" y="0" width="1080" height="48" rx="12" fill="#f8fafc" stroke="#e2e8f0"/>
  <text x="12" y="30" class="small">2026-03-27</text><text x="130" y="30" class="label">第一上海</text><text x="270" y="30" class="small">买入/46.7</text><text x="460" y="30" class="small">高分红加回购，按PE估值</text></g>
<g transform="translate(60,528)"><rect x="0" y="0" width="1080" height="48" rx="12" fill="#ffffff" stroke="#e2e8f0"/>
  <text x="12" y="30" class="small">2026-03-26</text><text x="130" y="30" class="label">广发</text><text x="270" y="30" class="small">买入/45.15</text><text x="460" y="30" class="small">主业稳健，延续高分红</text></g>
<g transform="translate(60,586)"><rect x="0" y="0" width="1080" height="48" rx="12" fill="#f8fafc" stroke="#e2e8f0"/>
  <text x="12" y="30" class="small">2026-03-23</text><text x="130" y="30" class="label">汇丰</text><text x="270" y="30" class="small">买入/41</text><text x="460" y="30" class="small">估值和股息率仍具吸引力</text></g>
<g transform="translate(60,644)"><rect x="0" y="0" width="1080" height="48" rx="12" fill="#ffffff" stroke="#e2e8f0"/>
  <text x="12" y="30" class="small">2026-03-06</text><text x="130" y="30" class="label">中金</text><text x="270" y="30" class="small">跑赢/47.54</text><text x="460" y="30" class="small">产能市值比、出海与氧化铝自给率</text></g>
<text x="68" y="710" class="tiny">说明：研报全文版权归原机构所有，图表仅做元数据和观点框架整理。</text>
</svg>