<?xml version="1.0" encoding="UTF-8"?>
<svg xmlns="http://www.w3.org/2000/svg" width="1200" height="680" viewBox="0 0 1200 680" role="img" aria-label="2026定增标的公司财务">
<style>
  .bg{fill:#f8fafc}.ink{fill:#102033}.muted{fill:#5f6f83}.line{stroke:#cbd5e1;stroke-width:2}.blue{fill:#2563eb}.green{fill:#0f9f6e}.red{fill:#dc2626}.amber{fill:#f59e0b}.card{fill:#fff;stroke:#dbe4ef;stroke-width:1.5;rx:12}.small{font:500 22px 'Noto Sans SC',Arial}.label{font:600 24px 'Noto Sans SC',Arial}.num{font:800 34px 'Plus Jakarta Sans','Noto Sans SC',Arial}.title{font:800 44px 'Noto Sans SC',Arial}.sub{font:500 22px 'Noto Sans SC',Arial}.tiny{font:500 18px 'Noto Sans SC',Arial}
</style><rect class="bg" width="1200" height="680"/><text x="70" y="70" class="title">2026 定增标的：收入体量主要来自华茂，利润贡献更分散</text><text x="70" y="108" class="sub muted">单位：亿元；2025年数据为预案披露的未经审计口径</text>
<g transform="translate(120 170)"><rect class="card" width="250" height="400"/><text x="24" y="44" class="label">江硬公司</text><text x="24" y="76" class="tiny muted">硬质合金</text><rect x="58" y="263.7511751801943" width="52" height="66.2488248198057" fill="#2563eb"/><rect x="142" y="282.7118644067797" width="52" height="47.288135593220346" fill="#0f9f6e"/><text x="44" y="360" class="tiny">收入</text><text x="130" y="360" class="tiny">净利</text><text x="42" y="251.7511751801943" class="tiny blue">7.55</text><text x="126" y="270.7118644067797" class="tiny green">0.31</text><text x="24" y="388" class="tiny muted">拟收购价：8.70 亿</text></g><g transform="translate(450 170)"><rect class="card" width="250" height="400"/><text x="24" y="44" class="label">华茂公司</text><text x="24" y="76" class="tiny muted">钨粉/碳化钨粉</text><rect x="58" y="50" width="52" height="280" fill="#2563eb"/><rect x="142" y="240" width="52" height="90" fill="#0f9f6e"/><text x="44" y="360" class="tiny">收入</text><text x="130" y="360" class="tiny">净利</text><text x="42" y="38" class="tiny blue">31.91</text><text x="126" y="228" class="tiny green">0.59</text><text x="24" y="388" class="tiny muted">拟收购价：7.17 亿</text></g><g transform="translate(780 170)"><rect class="card" width="250" height="400"/><text x="24" y="44" class="label">九冶公司</text><text x="24" y="76" class="tiny muted">钽铌冶炼</text><rect x="58" y="265.94484487621435" width="52" height="64.05515512378564" fill="#2563eb"/><rect x="142" y="267.45762711864404" width="52" height="62.54237288135594" fill="#0f9f6e"/><text x="44" y="360" class="tiny">收入</text><text x="130" y="360" class="tiny">净利</text><text x="42" y="253.94484487621435" class="tiny blue">7.30</text><text x="126" y="255.45762711864407" class="tiny green">0.41</text><text x="24" y="388" class="tiny muted">拟收购价：2.95 亿</text></g>
<g transform="translate(80 595)"><rect x="0" y="0" width="1040" height="46" rx="12" fill="#eff6ff"/><text x="22" y="30" class="small">合计：拟募资/收购价 18.82 亿；三家公司2025收入 46.77 亿，净利润 1.32 亿，所有者权益 14.68 亿。</text></g>
</svg>